<?xml version="1.0" standalone="no"?>
<!DOCTYPE svg PUBLIC "-//W3C//DTD SVG 1.1//EN" "http://www.w3.org/Graphics/SVG/1.1/DTD/svg11.dtd">
<svg width="100%" height="100%" viewBox="0 0 589 593" version="1.1" xmlns="http://www.w3.org/2000/svg" xmlns:xlink="http://www.w3.org/1999/xlink" xml:space="preserve" style="fill-rule:evenodd;clip-rule:evenodd;stroke-linejoin:round;stroke-miterlimit:1.41421;">
    <g>
        <g transform="matrix(0.992167,-7.39733e-18,-7.2909e-18,0.992167,2.30257,3.49811)">
            <g id="Layer2">
                <path d="M581.25,296C581.25,454.644 452.644,583.25 294,583.25C202.027,583.25 120.149,540.025 67.575,472.781C29.464,424.036 6.75,362.671 6.75,296C6.75,137.356 135.356,8.75 294,8.75C452.644,8.75 581.25,137.356 581.25,296" style="fill:rgb(153,153,153);fill-rule:nonzero;"/>
            </g>
        </g>
        <g id="Layer 2">
            <g>
                <path d="M91.179,291.803L102.179,291.803C102.18,285.324 102.984,279.18 104.574,273.271C106.166,267.363 108.545,261.683 111.772,256.148C115.016,250.589 118.787,245.685 123.121,241.349C127.457,237.015 132.361,233.244 137.919,230L145.854,225.372L142.715,216.74C141.007,212.032 140.212,207.542 140.208,203.069C140.214,196.424 141.351,190.598 143.539,185.272C145.737,179.949 149.005,175.069 153.624,170.441C158.251,165.823 163.131,162.554 168.454,160.357C173.78,158.169 179.606,157.031 186.251,157.026C190.06,157.021 194.73,157.803 200.202,159.63L209.654,162.781L213.722,153.687C217.808,144.558 222.917,136.435 229.086,129.196C235.257,121.959 242.497,115.596 250.92,110.059C259.301,104.554 268.058,100.479 277.304,97.751C286.55,95.026 296.299,93.646 306.676,93.644C320.241,93.649 332.588,95.899 343.989,100.325C355.386,104.759 365.882,111.382 375.656,120.426C385.467,129.515 393.029,139.486 398.556,150.471C404.075,161.459 407.576,173.496 409.035,186.832L409.918,194.922L417.912,196.445C427.857,198.343 436.739,201.661 444.785,206.403C452.826,211.151 460.057,217.339 466.582,225.164C473.073,232.96 477.826,241.232 481.014,250.145C484.195,259.061 485.817,268.649 485.82,279.127C485.815,291.053 483.753,301.765 479.717,311.581C475.67,321.393 469.629,330.366 461.313,338.691C452.988,347.007 444.015,353.048 434.202,357.095C424.387,361.131 413.675,363.193 401.748,363.199L173.575,363.199C163.515,363.193 154.499,361.436 146.2,357.998C137.905,354.55 130.27,349.397 123.122,342.256C115.981,335.107 110.828,327.473 107.38,319.178C103.942,310.879 102.185,301.863 102.179,291.803L80.185,291.436L80.185,291.437L91.179,291.803L102.179,291.803L91.179,291.803L102.173,292.169L91.179,291.803L80.179,291.803C80.173,304.454 82.443,316.499 87.06,327.61C91.667,338.726 98.596,348.852 107.565,357.813C116.526,366.782 126.652,373.711 137.767,378.318C148.879,382.935 160.924,385.205 173.575,385.199L401.748,385.199C416.231,385.205 429.947,382.645 442.579,377.438C455.215,372.241 466.708,364.418 476.869,354.248C487.039,344.086 494.863,332.593 500.06,319.957C505.267,307.326 507.826,293.609 507.82,279.127C507.824,266.364 505.814,254.166 501.733,242.746C497.658,231.325 491.517,220.714 483.483,211.08C475.484,201.475 467.256,191.424 455.963,187.455C405.229,169.621 356.758,154.637 422.029,174.833L419.971,185.639L430.906,184.446C429.196,168.732 424.972,154.029 418.212,140.59C411.458,127.146 402.184,114.999 390.603,104.283C378.987,93.519 366.044,85.288 351.957,79.819C337.873,74.341 322.688,71.64 306.676,71.644C294.341,71.643 282.434,73.3 271.082,76.649C259.729,79.994 248.943,85.031 238.838,91.674C228.775,98.285 219.905,106.051 212.344,114.924C204.78,123.794 198.533,133.761 193.64,144.703L203.681,149.195L207.16,138.759C199.956,136.361 193.006,135.03 186.251,135.026C177.05,135.02 168.22,136.655 160.077,140.014C151.931,143.362 144.531,148.412 138.067,154.885C131.594,161.349 126.544,168.749 123.196,176.895C119.837,185.038 118.202,193.868 118.208,203.069C118.204,210.216 119.521,217.345 122.039,224.258L132.377,220.499L126.834,210.997C119.717,215.148 113.265,220.092 107.565,225.793C101.864,231.493 96.92,237.945 92.769,245.062C88.602,252.203 85.435,259.727 83.33,267.552C81.222,275.376 80.178,283.493 80.179,291.803L102.173,292.169L91.179,291.803Z" style="fill:white;fill-rule:nonzero;"/>
                <path d="M112.724,454.443L112.724,435.009C112.724,432.205 112.467,430.257 111.955,429.167C111.443,428.076 110.444,427.53 108.958,427.53C107.73,427.53 106.717,427.876 105.923,428.565C105.129,429.256 104.528,430.09 104.118,431.07L104.118,454.443L94.974,454.443L94.974,421.052L102.043,421.052L103.196,425.059L103.426,425.059C104.399,423.68 105.617,422.533 107.077,421.62C108.537,420.709 110.469,420.252 112.877,420.252C114.875,420.252 116.501,420.63 117.756,421.386C119.011,422.144 119.997,423.479 120.715,425.393C121.688,423.791 122.968,422.533 124.557,421.62C126.144,420.709 128.015,420.252 130.166,420.252C131.857,420.252 133.303,420.441 134.507,420.819C135.71,421.198 136.684,421.854 137.427,422.789C138.169,423.724 138.72,425.005 139.079,426.629C139.437,428.255 139.617,430.313 139.617,432.806L139.617,454.443L130.473,454.443L130.473,434.141C130.473,431.871 130.243,430.202 129.782,429.133C129.321,428.064 128.295,427.53 126.708,427.53C125.427,427.53 124.39,427.854 123.596,428.499C122.801,429.144 122.225,430.024 121.868,431.136L121.868,454.443L112.724,454.443Z" style="fill:white;fill-rule:nonzero;"/>
                <path d="M161.054,439.818L162.053,445.027L162.438,445.027L163.129,439.752L167.585,421.052L176.96,421.052L167.355,451.171C166.484,453.798 165.664,456.156 164.897,458.25C164.128,460.341 163.308,462.123 162.438,463.592C161.566,465.061 160.58,466.185 159.479,466.964C158.377,467.743 157.059,468.133 155.522,468.133C154.447,468.133 153.409,468.056 152.41,467.901C151.411,467.747 150.553,467.493 149.836,467.139L151.373,460.386C152.038,460.609 152.717,460.709 153.409,460.687C154.101,460.664 154.741,460.44 155.33,460.014C155.918,459.587 156.445,458.922 156.906,458.023C157.366,457.122 157.75,455.929 158.058,454.443L144.688,421.052L155.676,421.052L161.054,439.818Z" style="fill:white;fill-rule:nonzero;"/>
                <rect x="182.491" y="431.337" width="15.982" height="7.747" style="fill:white;fill-rule:nonzero;"/>
                <path d="M230.821,452.641C229.541,453.532 228.004,454.2 226.212,454.644C224.418,455.088 222.625,455.312 220.833,455.312C218.22,455.312 216.03,454.9 214.263,454.077C212.496,453.253 211.048,452.073 209.922,450.537C208.795,449.001 207.987,447.155 207.502,444.995C207.013,442.835 206.771,440.419 206.771,437.748C206.771,431.916 207.974,427.531 210.383,424.592C212.79,421.655 216.324,420.185 220.986,420.185C223.292,420.185 225.174,420.364 226.634,420.719C228.093,421.077 229.386,421.521 230.514,422.055L228.363,428.666C227.44,428.266 226.557,427.965 225.712,427.765C224.867,427.565 223.854,427.464 222.676,427.464C220.525,427.464 218.912,428.277 217.836,429.902C216.76,431.528 216.222,434.142 216.222,437.748C216.222,440.777 216.772,443.247 217.875,445.162C218.975,447.076 220.729,448.033 223.137,448.033C224.418,448.033 225.507,447.889 226.403,447.599C227.299,447.31 228.133,446.943 228.9,446.496L230.821,452.641Z" style="fill:white;fill-rule:nonzero;"/>
                <path d="M247.264,443.625C247.264,445.184 247.443,446.296 247.802,446.964C248.16,447.632 248.749,447.966 249.569,447.966C250.03,447.966 250.503,447.922 250.991,447.832C251.477,447.743 252.028,447.588 252.643,447.364L253.488,453.775C252.873,454.133 251.823,454.465 250.337,454.777C248.851,455.088 247.341,455.245 245.804,455.245C243.242,455.245 241.321,454.688 240.041,453.575C238.76,452.463 238.12,450.57 238.12,447.898L238.12,407.696L247.264,407.696L247.264,443.625Z" style="fill:white;fill-rule:nonzero;"/>
                <path d="M267.549,437.748C267.549,441.087 267.984,443.67 268.856,445.495C269.726,447.32 271.186,448.232 273.235,448.232C275.181,448.232 276.628,447.442 277.576,445.862C278.524,444.282 278.998,441.577 278.998,437.748C278.998,434.32 278.562,431.716 277.692,429.935C276.82,428.154 275.335,427.264 273.235,427.264C271.442,427.264 270.046,428.055 269.047,429.634C268.048,431.215 267.549,433.92 267.549,437.748M258.098,437.748C258.098,431.827 259.429,427.42 262.094,424.525C264.756,421.632 268.471,420.185 273.235,420.185C278.357,420.185 282.173,421.654 284.684,424.592C287.193,427.53 288.448,431.916 288.448,437.748C288.448,443.715 287.116,448.133 284.453,451.004C281.789,453.876 278.049,455.311 273.235,455.311C263.143,455.311 258.098,449.458 258.098,437.748" style="fill:white;fill-rule:nonzero;"/>
                <path d="M305.43,421.053L305.43,441.021C305.43,443.648 305.71,445.473 306.275,446.496C306.838,447.522 307.863,448.032 309.349,448.032C310.782,448.032 311.987,447.576 312.96,446.663C313.932,445.751 314.624,444.65 315.034,443.358L315.034,421.053L324.178,421.053L324.178,444.293C324.178,446.119 324.255,447.91 324.409,449.669C324.563,451.428 324.843,453.02 325.254,454.444L318.338,454.444L316.725,449.903L316.494,449.903C315.521,451.461 314.201,452.752 312.537,453.776C310.872,454.799 308.811,455.312 306.352,455.312C304.763,455.312 303.355,455.121 302.125,454.744C300.897,454.366 299.846,453.709 298.975,452.774C298.104,451.839 297.439,450.56 296.978,448.934C296.517,447.31 296.286,445.251 296.286,442.757L296.286,421.053L305.43,421.053Z" style="fill:white;fill-rule:nonzero;"/>
                <path d="M347.075,448.032C348.459,448.032 349.559,447.731 350.38,447.131C351.198,446.529 351.813,445.651 352.223,444.493L352.223,428.732C351.711,428.332 351.135,428.043 350.495,427.864C349.853,427.687 349.021,427.597 347.997,427.597C345.948,427.597 344.411,428.398 343.387,430.002C342.362,431.604 341.85,434.454 341.85,438.55C341.85,441.621 342.273,443.97 343.118,445.594C343.964,447.22 345.282,448.032 347.075,448.032M361.367,442.689C361.367,444.559 361.392,446.429 361.444,448.3C361.494,450.169 361.7,452.239 362.058,454.51L355.604,454.51L354.375,450.636L354.067,450.636C352.325,453.754 349.277,455.311 344.924,455.311C341.03,455.311 337.97,453.975 335.742,451.304C333.513,448.634 332.399,444.293 332.399,438.282C332.399,432.405 333.602,427.942 336.011,424.892C338.418,421.844 342.004,420.318 346.768,420.318C347.997,420.318 349.021,420.385 349.842,420.518C350.66,420.652 351.455,420.875 352.223,421.186L352.223,407.696L361.367,407.696L361.367,442.689Z" style="fill:white;fill-rule:nonzero;"/>
                <path d="M370.202,450.102C370.202,448.456 370.702,447.208 371.7,446.364C372.699,445.518 374.017,445.093 375.658,445.093C377.45,445.093 378.833,445.518 379.806,446.364C380.779,447.208 381.266,448.456 381.266,450.102C381.266,451.706 380.767,452.953 379.768,453.843C378.769,454.732 377.398,455.177 375.658,455.177C373.968,455.177 372.635,454.732 371.662,453.843C370.688,452.953 370.202,451.706 370.202,450.102" style="fill:white;fill-rule:nonzero;"/>
                <path d="M401.398,445.562C401.398,444.627 401.052,443.837 400.361,443.191C399.669,442.546 398.786,441.946 397.71,441.388C396.634,440.833 395.494,440.264 394.291,439.685C393.086,439.107 391.947,438.395 390.871,437.548C389.795,436.703 388.912,435.678 388.22,434.476C387.529,433.274 387.183,431.761 387.183,429.935C387.183,426.82 388.156,424.416 390.103,422.723C392.049,421.032 394.918,420.185 398.709,420.185C400.962,420.185 403.088,420.397 405.086,420.82C407.084,421.244 408.671,421.766 409.85,422.389L407.699,428.533C406.725,428.177 405.547,427.832 404.164,427.498C402.781,427.164 401.423,426.997 400.091,426.997C397.582,426.997 396.327,427.91 396.327,429.735C396.327,430.582 396.672,431.283 397.364,431.838C398.055,432.396 398.939,432.94 400.015,433.475C401.09,434.009 402.23,434.566 403.434,435.144C404.637,435.723 405.778,436.447 406.853,437.315C407.929,438.183 408.813,439.241 409.504,440.487C410.196,441.734 410.542,443.27 410.542,445.094C410.542,448.166 409.465,450.637 407.314,452.507C405.163,454.377 401.96,455.312 397.71,455.312C395.609,455.312 393.547,455.088 391.524,454.644C389.5,454.2 387.875,453.621 386.645,452.908L389.18,446.497C390.256,447.031 391.498,447.499 392.908,447.899C394.316,448.3 395.789,448.5 397.326,448.5C398.503,448.5 399.477,448.266 400.246,447.799C401.013,447.332 401.398,446.586 401.398,445.562" style="fill:white;fill-rule:nonzero;"/>
                <path d="M419.069,421.053L428.213,421.053L428.213,454.444L419.069,454.444L419.069,421.053ZM418.07,411.637C418.07,410.301 418.557,409.199 419.53,408.331C420.503,407.463 421.886,407.029 423.68,407.029C425.473,407.029 426.907,407.452 427.982,408.298C429.059,409.144 429.597,410.258 429.597,411.637C429.597,413.018 429.059,414.107 427.982,414.909C426.907,415.71 425.473,416.111 423.68,416.111C421.886,416.111 420.503,415.7 419.53,414.876C418.557,414.053 418.07,412.973 418.07,411.637" style="fill:white;fill-rule:nonzero;"/>
                <path d="M435.513,421.053L439.739,421.053L439.739,414.776L448.882,412.305L448.882,421.053L456.336,421.053L456.336,428.132L448.882,428.132L448.882,442.69C448.882,444.605 449.1,445.962 449.535,446.764C449.97,447.565 450.752,447.966 451.879,447.966C452.648,447.966 453.339,447.899 453.953,447.766C454.569,447.632 455.234,447.432 455.951,447.164L457.104,453.509C455.977,453.999 454.67,454.41 453.186,454.744C451.7,455.078 450.137,455.245 448.498,455.245C445.578,455.245 443.389,454.51 441.929,453.041C440.469,451.573 439.739,449.101 439.739,445.628L439.739,428.132L435.513,428.132L435.513,421.053Z" style="fill:white;fill-rule:nonzero;"/>
                <path d="M477.694,426.93C475.747,426.93 474.287,427.61 473.315,428.967C472.341,430.326 471.778,432.229 471.625,434.676L482.228,434.676C482.381,432.139 482.074,430.213 481.305,428.9C480.538,427.587 479.334,426.93 477.694,426.93M489.681,451.973C488.4,452.952 486.658,453.754 484.456,454.377C482.253,455 479.948,455.312 477.541,455.312C474.877,455.312 472.585,454.911 470.664,454.11C468.743,453.309 467.168,452.151 465.938,450.637C464.709,449.124 463.798,447.287 463.211,445.127C462.621,442.969 462.327,440.509 462.327,437.748C462.327,431.739 463.697,427.297 466.438,424.426C469.177,421.554 472.981,420.118 477.848,420.118C479.487,420.118 481.075,420.33 482.612,420.752C484.149,421.176 485.518,421.888 486.723,422.89C487.925,423.891 488.899,425.227 489.642,426.897C490.384,428.566 490.757,430.669 490.757,433.207C490.757,434.187 490.692,435.234 490.565,436.346C490.436,437.459 490.244,438.661 489.989,439.952L471.317,439.952C471.419,442.713 472.086,444.827 473.315,446.296C474.544,447.766 476.515,448.5 479.231,448.5C480.87,448.5 482.368,448.278 483.726,447.832C485.083,447.388 486.12,446.92 486.839,446.43L489.681,451.973Z" style="fill:white;fill-rule:nonzero;"/>
            </g>
        </g>
    </g>
</svg>
